<?xml version="1.0" standalone="no"?><!DOCTYPE svg PUBLIC "-//W3C//DTD SVG 1.1//EN" "http://www.w3.org/Graphics/SVG/1.1/DTD/svg11.dtd"><svg t="1707634974296" class="icon" viewBox="0 0 1024 1024" version="1.1" xmlns="http://www.w3.org/2000/svg" p-id="2812" xmlns:xlink="http://www.w3.org/1999/xlink" width="32" height="32"><path d="M820.053333 205.077333a42.666667 42.666667 0 0 1 1.408 57.664l-2.538666 2.666667L562.837333 512l256.085334 246.613333a42.666667 42.666667 0 0 1-56.426667 63.893334l-2.773333-2.432L501.333333 571.221333 242.922667 820.074667a42.666667 42.666667 0 0 1-61.717334-58.816l2.538667-2.666667L439.808 512 183.744 265.386667a42.666667 42.666667 0 0 1 56.426667-63.893334l2.773333 2.432 258.368 248.832L759.744 203.925333a42.666667 42.666667 0 0 1 60.330667 1.152z" fill="#e6e6e6" p-id="2813"></path></svg>