<?xml version="1.0" standalone="no"?><!DOCTYPE svg PUBLIC "-//W3C//DTD SVG 1.1//EN" "http://www.w3.org/Graphics/SVG/1.1/DTD/svg11.dtd"><svg t="1707634682198" class="icon" viewBox="0 0 1024 1024" version="1.1" xmlns="http://www.w3.org/2000/svg" p-id="1075" xmlns:xlink="http://www.w3.org/1999/xlink" width="32" height="32"><path d="M282.35937473 195.59375A86.76562473 86.76562473 0 0 0 195.59375 282.35937473v459.28125054A86.76562473 86.76562473 0 0 0 282.35937473 828.40625h459.28125054A86.76562473 86.76562473 0 0 0 828.40625 741.64062527V282.35937473A86.76562473 86.76562473 0 0 0 741.64062527 195.59375H282.35937473z m-15.32812446 86.76562473c0-8.4375 6.85546875-15.32812527 15.32812446-15.32812446h459.28125054c8.4375 0 15.32812527 6.85546875 15.32812446 15.32812446v459.28125054c0 8.4375-6.85546875 15.32812527-15.32812446 15.32812446H282.35937473a15.29296875 15.29296875 0 0 1-15.32812446-15.32812446V282.35937473z" fill="#e6e6e6" p-id="1076"></path></svg>