<?xml version="1.0" standalone="no"?><!DOCTYPE svg PUBLIC "-//W3C//DTD SVG 1.1//EN" "http://www.w3.org/Graphics/SVG/1.1/DTD/svg11.dtd"><svg t="1707634800076" class="icon" viewBox="0 0 1024 1024" version="1.1" xmlns="http://www.w3.org/2000/svg" p-id="1400" xmlns:xlink="http://www.w3.org/1999/xlink" width="32" height="32"><path d="M863.60644531 598.77441406a43.90136719 43.90136719 0 0 0-43.90136719 43.82226563v113.39208984l-144.51855468-144.36035156a43.90136719 43.90136719 0 0 0-62.09472657 61.97607422l146.33789063 146.21923828h-115.29052734a43.90136719 43.90136719 0 0 0-43.90136719 43.82226562A43.82226563 43.82226563 0 0 0 644.13916016 907.5078125h219.50683593A43.90136719 43.90136719 0 0 0 907.5078125 863.68554688v-221.08886719a43.82226563 43.82226563 0 0 0-43.90136719-43.82226563zM267.25976563 204.17626953h113.51074218a43.90136719 43.90136719 0 0 0 43.90136719-43.82226562A43.82226563 43.82226563 0 0 0 380.77050781 116.4921875H160.39355469A43.90136719 43.90136719 0 0 0 116.4921875 160.35400391V379.50488281A43.82226563 43.82226563 0 0 0 160.39355469 423.40625 43.90136719 43.90136719 0 0 0 204.29492187 379.50488281v-114.30175781l145.46777344 145.30957031a43.90136719 43.90136719 0 0 0 74.35546875-31.16601562c0.11865234-11.46972656-4.31103516-22.54394531-12.30029297-30.84960938l-144.55810547-144.36035156zM380.77050781 819.82373047H265.47998047l146.33789062-146.21923828a43.82226563 43.82226563 0 0 0-31.2055664-74.31591797 43.90136719 43.90136719 0 0 0-30.84960938 12.33984375L204.29492187 756.8984375v-114.30175781a43.82226563 43.82226563 0 0 0-43.90136718-43.82226563A43.90136719 43.90136719 0 0 0 116.4921875 642.59667969v221.08886718A43.82226563 43.82226563 0 0 0 160.39355469 907.5078125h220.37695312a43.90136719 43.90136719 0 0 0 43.90136719-43.82226563 43.82226563 43.82226563 0 0 0-43.90136719-43.8618164zM904.14599609 143.58447266A43.90136719 43.90136719 0 0 0 863.60644531 116.4921875h-219.46728515a43.90136719 43.90136719 0 0 0-43.90136719 43.86181641 43.82226563 43.82226563 0 0 0 43.90136719 43.82226562h113.51074218l-144.51855468 144.36035156a43.90136719 43.90136719 0 1 0 62.05517578 62.015625l144.51855468-144.36035156V379.50488281a43.82226563 43.82226563 0 0 0 43.90136719 43.86181641A43.90136719 43.90136719 0 0 0 907.5078125 379.50488281V160.39355469c0-5.77441406-1.18652344-11.46972656-3.36181641-16.76953125z" fill="#e6e6e6" p-id="1401"></path></svg>