<?xml version="1.0" standalone="no"?><!DOCTYPE svg PUBLIC "-//W3C//DTD SVG 1.1//EN" "http://www.w3.org/Graphics/SVG/1.1/DTD/svg11.dtd"><svg t="1707635724662" class="icon" viewBox="0 0 1024 1024" version="1.1" xmlns="http://www.w3.org/2000/svg" p-id="1341" xmlns:xlink="http://www.w3.org/1999/xlink" width="32" height="32"><path d="M304.87387614 796.79842016a25.89076502 25.89076502 0 0 1-25.89076503 25.89076502h-51.78153127a25.89076502 25.89076502 0 0 1-25.89076502-25.89076502v-569.59684032a25.89076502 25.89076502 0 0 1 25.89076502-25.89076502h51.78153127a25.89076502 25.89076502 0 0 1 25.89076503 25.89076502zM822.68918518 230.82628741a39.87177836 39.87177836 0 0 0-19.15916682-33.65799466l-6.2137837-3.10689185a37.80051794 37.80051794 0 0 0-41.42522429 0l-381.62988206 269.7817754a38.83614815 38.83614815 0 0 0-16.57009069 31.58673423v32.10454872a38.83614815 38.83614815 0 0 0 16.57009069 31.58673424l381.62988206 268.22832948a37.80051794 37.80051794 0 0 0 41.42522429 0l6.2137837-3.10689186a39.35396386 39.35396386 0 0 0 19.15916682-33.65799466z" fill="#e6e6e6" p-id="1342"></path></svg>