<?xml version="1.0" standalone="no"?><!DOCTYPE svg PUBLIC "-//W3C//DTD SVG 1.1//EN" "http://www.w3.org/Graphics/SVG/1.1/DTD/svg11.dtd"><svg t="1708363691813" class="icon" viewBox="0 0 1024 1024" version="1.1" xmlns="http://www.w3.org/2000/svg" p-id="1230" xmlns:xlink="http://www.w3.org/1999/xlink" width="32" height="32"><path d="M62 174.49999999l0 675 900 0 0-675-900 0zM230.75 793.25l-112.5 0 0-112.5 112.5 0 0 112.5zM230.75 568.24999999l-112.5 0 0-112.49999998 112.5 0 0 112.5zM230.75 343.25l-112.5 0 0-112.5 112.5 0 0 112.5zM737 793.25l-450 0 0-562.5 450 0 0 562.5zM905.75 793.25l-112.5 0 0-112.5 112.5 0 0 112.5zM905.75 568.24999999l-112.5 0 0-112.49999998 112.5 0 0 112.5zM905.75 343.25l-112.5 0 0-112.5 112.5 0 0 112.5zM399.49999999 343.25l2e-8 337.5 224.99999998-168.75z" fill="#e6e6e6" p-id="1231"></path></svg>